<svg xmlns="http://www.w3.org/2000/svg" viewBox="0 0 1920 1080"><defs xmlns="http://www.w3.org/2000/svg"><style>.cls-1{isolation:isolate;}.cls-17,.cls-2{fill:#cce9ff;}.cls-2{opacity:0.48;}.cls-3{fill:#f7f7f7;}.cls-10,.cls-11,.cls-4{font-size:43.67px;font-family:WorkSans-Bold, Work Sans;font-weight:700;}.cls-12,.cls-4{fill:#0e538c;}.cls-5{letter-spacing:-0.03em;}.cls-6{letter-spacing:-0.07em;}.cls-7{letter-spacing:-0.02em;}.cls-8{letter-spacing:-0.02em;}.cls-9{fill:#d3d3d3;}.cls-10{fill:#2a94f4;}.cls-11,.cls-14{fill:#0b4870;}.cls-13{fill:#ffe3ca;}.cls-15{fill:#fff;}.cls-16{fill:#ffbe55;}.cls-17{opacity:0.39;mix-blend-mode:multiply;}</style></defs><title xmlns="http://www.w3.org/2000/svg">Job listing</title><g xmlns="http://www.w3.org/2000/svg" class="cls-1"><g id="Layer_2" data-name="Layer 2"><path class="cls-2" d="M261.2,979H1746.49S1823.41,714.3,1585,637.56c-205.46-66.12-294.3,151.29-512.61,101.23S451.22,446.41,254.73,621.59C123.27,738.79,136.27,935.71,261.2,979Z"/><rect class="cls-3" x="1203.95" y="271.07" width="375.4" height="522.07" rx="29.08"/><text class="cls-4" transform="translate(1239.52 351.82)">JOB<tspan class="cls-5" x="89.05" y="0"> </tspan><tspan class="cls-6" x="100.27" y="0">V</tspan><tspan class="cls-7" x="126.95" y="0">A</tspan><tspan x="155.47" y="0">CAN</tspan><tspan class="cls-8" x="247.14" y="0">C</tspan><tspan class="cls-5" x="276" y="0">Y</tspan></text><rect class="cls-9" x="1239.52" y="381.75" width="184.42" height="9.61"/><rect class="cls-9" x="1239.52" y="407.33" width="184.42" height="9.61"/><rect class="cls-9" x="1239.52" y="432.92" width="184.42" height="9.61"/><rect class="cls-9" x="1239.52" y="458.5" width="184.42" height="9.61"/><rect class="cls-9" x="1239.52" y="484.08" width="184.42" height="9.61"/><rect class="cls-9" x="1239.52" y="509.66" width="184.42" height="9.61"/><rect class="cls-9" x="1239.52" y="535.24" width="310.15" height="9.61"/><rect class="cls-9" x="1239.52" y="560.82" width="310.15" height="9.61"/><rect class="cls-9" x="1239.52" y="586.4" width="310.15" height="9.61"/><rect class="cls-9" x="1239.52" y="611.98" width="310.15" height="9.61"/><rect class="cls-9" x="1239.52" y="637.56" width="310.15" height="9.61"/><rect class="cls-9" x="1239.52" y="663.14" width="310.15" height="9.61"/><rect class="cls-9" x="1239.52" y="688.72" width="310.15" height="9.61"/><rect class="cls-9" x="1239.52" y="714.3" width="310.15" height="9.61"/><rect class="cls-9" x="1239.52" y="739.88" width="310.15" height="9.61"/><rect class="cls-9" x="1437.96" y="381.75" width="111.71" height="137.51"/><rect class="cls-3" x="762.61" y="184.41" width="375.4" height="522.07" rx="29.08"/><text class="cls-10" transform="translate(798.18 265.16)">JOB<tspan class="cls-5" x="89.05" y="0"> </tspan><tspan class="cls-6" x="100.27" y="0">V</tspan><tspan class="cls-7" x="126.95" y="0">A</tspan><tspan x="155.47" y="0">CAN</tspan><tspan class="cls-8" x="247.14" y="0">C</tspan><tspan class="cls-5" x="276" y="0">Y</tspan></text><rect class="cls-9" x="798.18" y="295.09" width="184.42" height="9.61"/><rect class="cls-9" x="798.18" y="320.67" width="184.42" height="9.61"/><rect class="cls-9" x="798.18" y="346.25" width="184.42" height="9.61"/><rect class="cls-9" x="798.18" y="371.83" width="184.42" height="9.61"/><rect class="cls-9" x="798.18" y="397.42" width="184.42" height="9.61"/><rect class="cls-9" x="798.18" y="423" width="184.42" height="9.61"/><rect class="cls-9" x="798.18" y="448.58" width="310.15" height="9.61"/><rect class="cls-9" x="798.18" y="474.16" width="310.15" height="9.61"/><rect class="cls-9" x="798.18" y="499.74" width="310.15" height="9.61"/><rect class="cls-9" x="798.18" y="525.32" width="310.15" height="9.61"/><rect class="cls-9" x="798.18" y="550.9" width="310.15" height="9.61"/><rect class="cls-9" x="798.18" y="576.48" width="310.15" height="9.61"/><rect class="cls-9" x="798.18" y="602.06" width="310.15" height="9.61"/><rect class="cls-9" x="798.18" y="627.64" width="310.15" height="9.61"/><rect class="cls-9" x="798.18" y="653.22" width="310.15" height="9.61"/><rect class="cls-9" x="996.62" y="295.09" width="111.71" height="137.51"/><rect class="cls-3" x="340.65" y="295.56" width="375.4" height="522.07" rx="29.08"/><text class="cls-11" transform="translate(376.22 376.31)">JOB<tspan class="cls-5" x="89.05" y="0"> </tspan><tspan class="cls-6" x="100.27" y="0">V</tspan><tspan class="cls-7" x="126.95" y="0">A</tspan><tspan x="155.47" y="0">CAN</tspan><tspan class="cls-8" x="247.14" y="0">C</tspan><tspan class="cls-5" x="276" y="0">Y</tspan></text><rect class="cls-9" x="376.22" y="406.24" width="184.42" height="9.61"/><rect class="cls-9" x="376.22" y="431.82" width="184.42" height="9.61"/><rect class="cls-9" x="376.22" y="457.4" width="184.42" height="9.61"/><rect class="cls-9" x="376.22" y="482.98" width="184.42" height="9.61"/><rect class="cls-9" x="376.22" y="508.56" width="184.42" height="9.61"/><rect class="cls-9" x="376.22" y="534.14" width="184.42" height="9.61"/><rect class="cls-9" x="376.22" y="559.73" width="310.15" height="9.61"/><rect class="cls-9" x="376.22" y="585.31" width="310.15" height="9.61"/><rect class="cls-9" x="376.22" y="610.89" width="310.15" height="9.61"/><rect class="cls-9" x="376.22" y="636.47" width="310.15" height="9.61"/><rect class="cls-9" x="376.22" y="662.05" width="310.15" height="9.61"/><rect class="cls-9" x="376.22" y="687.63" width="310.15" height="9.61"/><rect class="cls-9" x="376.22" y="713.21" width="310.15" height="9.61"/><rect class="cls-9" x="376.22" y="738.79" width="310.15" height="9.61"/><rect class="cls-9" x="376.22" y="764.37" width="310.15" height="9.61"/><rect class="cls-9" x="574.66" y="406.24" width="111.71" height="137.51"/><path class="cls-12" d="M739.76,898.62s-18.84,2.37-21.08,8.77-5.44,32.31-1.6,35.51,17.59,15.36,21.11,13.76-7-15.36-4.8-22.08S739.15,912.51,744,908,739.76,898.62,739.76,898.62Z"/><polygon class="cls-3" points="736.82 898.06 723.52 903.01 736.02 925.86 740.55 912.76 736.82 898.06"/><path class="cls-12" d="M1114.24,941.81V973s79,3.22,79.67,0-55.9-20.56-55.9-20.56l-5.46-20.88Z"/><polygon class="cls-3" points="1114.05 943.66 1114.05 954.79 1138.01 952.41 1134.45 936.65 1114.05 943.66"/><path class="cls-13" d="M1198.28,487s11.21-13.79,11.67-22.47-1.34-14.06-1.34-14.06-11.49,21.95-12.44,21.25,2.94-9.1,2.94-9.1-2.17-4.35-11.94,22.43S1198.28,487,1198.28,487Z"/><path class="cls-14" d="M1020.47,635.62H931.81S896.47,788.4,864.93,805.48s-138,93.29-138,93.29l14.45,26.29S909.13,844.9,934.33,798.91s58.41-110.38,58.41-110.38,117.91,82.78,117.91,103.81V944.77h28.91s21-156.37,6.57-182.65S1020.47,635.62,1020.47,635.62Z"/><polygon class="cls-15" points="1042.14 431.59 1051.71 439.21 1045.18 450.49 1037.07 437.46 1042.14 431.59"/><path class="cls-15" d="M1028.34,446.18l21,1.37,21.28,14.73-7.37,10.36v19.64s.55,57.82-13.77,86.46-16.23,60.27-25.78,66.54-91.19,5.85-91.19,5.85l83.65-195.95Z"/><path class="cls-13" d="M1069.87,355.77s21.16,57.32,4.11,63.28a45.78,45.78,0,0,1-30.89,0l-2.4,31.43-16.43-3.08-9.66-3.9,6.78-34.11s-3.08-46,8-53.62S1069.87,355.77,1069.87,355.77Z"/><path class="cls-14" d="M1029.39,364.81s11.92-2.67,20.14-1.85,19.31,4.31,26.09-6.57,9.24-20.76-4.32-18.91-53.41-2.05-57.93,20.34S1029.39,364.81,1029.39,364.81Z"/><path class="cls-14" d="M1014.76,353.62s-3.93,7.08-2,26.39,8.1,32.19,8.1,32.19h2.61s4.32-7.33,4.32-13.28-4.11-13.12,1.64-16,8.22,4.5,8.22,4.5l4.31-1.23s-12.51-12,3.71-23.37,9-17.72,9-17.72Z"/><polygon class="cls-15" points="1017.62 428.32 1037.07 445.09 1026.16 455.19 1013.34 433.09 1017.62 428.32"/><path class="cls-12" d="M1064.15,503s1.92-8.64-2,30-36.06,111.53-36.06,111.53h-4.83s32.4-83.46,39.38-130.77-12.56-68.33-12.56-68.33l3.61-6.24-9.57-7.62s31,5.87,42.66,36.06c6.19,16.06,43,62.41,43,62.41l58.91-66.1,20.94,19.7s-61.68,86.69-81.5,85.54S1064.15,503,1064.15,503Z"/><polygon class="cls-16" points="1033.49 449.1 1041.02 446.19 1048.1 445.44 1043.1 457.86 1033.49 449.1"/><path class="cls-16" d="M1043.09,457.86s15.17,24.76,13.16,39.43-54.71,147.26-54.71,147.26,42.11-135.31,39.25-148.89S1043.09,457.86,1043.09,457.86Z"/><path class="cls-12" d="M1017.62,428.32S964.7,427.24,957,441s-11.08,46.06-11.08,46.06-12.44,139.85-24,165.26,69-52.47,79.54-77.33,29.27-130.34,29.27-130.34l-13.07-16.37"/><circle class="cls-17" cx="1234.89" cy="361" r="91.24"/><path class="cls-16" d="M1234.89,253.12A109.12,109.12,0,0,0,1174,452.78L1109.45,588a16,16,0,1,0,28.79,13.74l64.52-135.16a109.13,109.13,0,1,0,32.13-213.42Zm0,198.85a89.74,89.74,0,1,1,89.74-89.74A89.74,89.74,0,0,1,1234.89,452Z"/><path class="cls-13" d="M1147.75,520.55s17.55,2.84,25.3-1.08,11.52-8.18,11.52-8.18-24.76,1-24.62-.19,9.35-2,9.35-2,2.69-4-25.39.84S1147.75,520.55,1147.75,520.55Z"/><path class="cls-12" d="M1001.54,451.65s49.16,85.85,54.89,83.61S1146.7,502,1146.7,502l10.81,20.65s-86.47,51.86-114.42,46.08-67.37-94.17-67.37-94.17Z"/></g></g></svg>